<svg
  width="36"
  height="36"
  viewBox="0 0 36 36"
  fill="none"
  xmlns="http://www.w3.org/2000/svg"
>
<g opacity="0.7" filter="url(#filter0_f_22_669)">
<path
      d="M25.8838 8.66626C26.3208 8.71047 26.6621 9.07994 26.6621 9.52856C26.6621 12.4721 25.918 15.2415 24.6104 17.6614C25.9184 20.0816 26.6621 22.852 26.6621 25.7961C26.662 26.2743 26.2741 26.6621 25.7959 26.6624L25.3535 26.6565C22.5742 26.5861 19.9598 25.853 17.6611 24.6106C15.2413 25.9183 12.4719 26.6623 9.52832 26.6624C9.07996 26.6624 8.71058 26.3216 8.66602 25.885L8.66211 25.7961C8.66211 22.8522 9.40402 20.0814 10.7119 17.6614C9.40447 15.2417 8.66214 12.4719 8.66211 9.52856C8.66211 9.05015 9.04991 8.66235 9.52832 8.66235L9.96973 8.66821C12.7485 8.73855 15.3628 9.47028 17.6611 10.7122C20.0811 9.40435 22.8521 8.66236 25.7959 8.66235L25.8838 8.66626ZM11.7852 19.3918C11.0094 21.0861 10.5319 22.9453 10.4199 24.9026C12.3773 24.7908 14.2363 24.314 15.9307 23.5383C14.3227 22.4041 12.9193 20.9999 11.7852 19.3918ZM23.5381 19.3918C22.4038 21.0001 20.9998 22.404 19.3916 23.5383C21.0859 24.3141 22.945 24.7907 24.9023 24.9026C24.7904 22.9453 24.3138 21.0861 23.5381 19.3918ZM17.6611 12.7161C15.6587 13.964 13.9638 15.6589 12.7158 17.6614C13.9638 19.6642 15.6584 21.3595 17.6611 22.6077C19.6641 21.3595 21.3583 19.6643 22.6064 17.6614C21.3583 15.6589 19.6638 13.964 17.6611 12.7161ZM10.4199 10.4202C10.5317 12.3775 11.0096 14.2365 11.7852 15.9309C12.9192 14.3232 14.323 12.9195 15.9307 11.7854C14.2363 11.0098 12.3772 10.5319 10.4199 10.4202ZM24.9023 10.4202C22.9451 10.5321 21.0859 11.0097 19.3916 11.7854C20.9996 12.9195 22.4038 14.323 23.5381 15.9309C24.3137 14.2365 24.7906 12.3775 24.9023 10.4202Z"
      fill="#F7A76E"
    />
</g>
<path
    d="M25.8838 8.66626C26.3208 8.71047 26.6621 9.07994 26.6621 9.52856C26.6621 12.4721 25.918 15.2415 24.6104 17.6614C25.9184 20.0816 26.6621 22.852 26.6621 25.7961C26.662 26.2743 26.2741 26.6621 25.7959 26.6624L25.3535 26.6565C22.5742 26.5861 19.9598 25.853 17.6611 24.6106C15.2413 25.9183 12.4719 26.6623 9.52832 26.6624C9.07996 26.6624 8.71058 26.3216 8.66602 25.885L8.66211 25.7961C8.66211 22.8522 9.40402 20.0814 10.7119 17.6614C9.40447 15.2417 8.66214 12.4719 8.66211 9.52856C8.66211 9.05015 9.04991 8.66235 9.52832 8.66235L9.96973 8.66821C12.7485 8.73855 15.3628 9.47028 17.6611 10.7122C20.0811 9.40435 22.8521 8.66236 25.7959 8.66235L25.8838 8.66626ZM11.7852 19.3918C11.0094 21.0861 10.5319 22.9453 10.4199 24.9026C12.3773 24.7908 14.2363 24.314 15.9307 23.5383C14.3227 22.4041 12.9193 20.9999 11.7852 19.3918ZM23.5381 19.3918C22.4038 21.0001 20.9998 22.404 19.3916 23.5383C21.0859 24.3141 22.945 24.7907 24.9023 24.9026C24.7904 22.9453 24.3138 21.0861 23.5381 19.3918ZM17.6611 12.7161C15.6587 13.964 13.9638 15.6589 12.7158 17.6614C13.9638 19.6642 15.6584 21.3595 17.6611 22.6077C19.6641 21.3595 21.3583 19.6643 22.6064 17.6614C21.3583 15.6589 19.6638 13.964 17.6611 12.7161ZM10.4199 10.4202C10.5317 12.3775 11.0096 14.2365 11.7852 15.9309C12.9192 14.3232 14.323 12.9195 15.9307 11.7854C14.2363 11.0098 12.3772 10.5319 10.4199 10.4202ZM24.9023 10.4202C22.9451 10.5321 21.0859 11.0097 19.3916 11.7854C20.9996 12.9195 22.4038 14.323 23.5381 15.9309C24.3137 14.2365 24.7906 12.3775 24.9023 10.4202Z"
    fill="#F26C0D"
  />
<defs>
<filter
      id="filter0_f_22_669"
      x="-0.000358582"
      y="-0.000114441"
      width="35.3249"
      height="35.3249"
      filterUnits="userSpaceOnUse"
      color-interpolation-filters="sRGB"
    >
<feFlood flood-opacity="0" result="BackgroundImageFix" />
<feBlend
        mode="normal"
        in="SourceGraphic"
        in2="BackgroundImageFix"
        result="shape"
      />
<feGaussianBlur stdDeviation="4.33123" result="effect1_foregroundBlur_22_669" />
</filter>
</defs>
</svg>
